<?xml version="1.0" encoding="UTF-8"?>
<svg version="1.1" xmlns="http://www.w3.org/2000/svg" width="500" height="500">
<path d="M0 0 C1.93166016 0.01740234 1.93166016 0.01740234 3.90234375 0.03515625 C5.19269531 0.04417969 6.48304688 0.05320313 7.8125 0.0625 C8.81152344 0.07410156 9.81054688 0.08570313 10.83984375 0.09765625 C11.49984375 1.41765625 12.15984375 2.73765625 12.83984375 4.09765625 C13.49984375 4.09765625 14.15984375 4.09765625 14.83984375 4.09765625 C16.19988198 5.75207505 17.4788558 7.4736167 18.71484375 9.22265625 C19.73191406 10.64964844 19.73191406 10.64964844 20.76953125 12.10546875 C22.82848011 15.08123258 24.84301248 18.08002334 26.83984375 21.09765625 C28.59388096 19.05934405 30.34309348 17.01719856 32.08984375 14.97265625 C32.58097656 14.40289062 33.07210937 13.833125 33.578125 13.24609375 C35.92345617 10.49423851 37.97415283 7.88081373 39.88671875 4.79296875 C42.09713643 1.74259236 43.20462723 0.93240967 46.83984375 0.09765625 C49.8828125 0.0859375 49.8828125 0.0859375 53.02734375 0.41015625 C54.07277344 0.50941406 55.11820312 0.60867187 56.1953125 0.7109375 C58.83984375 1.09765625 58.83984375 1.09765625 60.83984375 2.09765625 C60.31338443 6.39325909 58.93190344 8.63292301 56.15234375 11.91015625 C52.95448786 15.73954562 49.94745196 19.62712621 47.06640625 23.69921875 C46.66164063 24.16070312 46.256875 24.6221875 45.83984375 25.09765625 C45.17984375 25.09765625 44.51984375 25.09765625 43.83984375 25.09765625 C43.53046875 25.71640625 43.22109375 26.33515625 42.90234375 26.97265625 C42.21484375 28.34765625 41.52734375 29.72265625 40.83984375 31.09765625 C40.17984375 31.09765625 39.51984375 31.09765625 38.83984375 31.09765625 C37.87917508 33.2625441 37.87917508 33.2625441 37.83984375 36.09765625 C39.40737577 38.54417819 40.91046617 40.59597577 42.77734375 42.78515625 C47.83984375 48.89133095 47.83984375 48.89133095 47.83984375 51.09765625 C48.49984375 51.09765625 49.15984375 51.09765625 49.83984375 51.09765625 C51.62412944 53.29164481 53.27413092 55.47986482 54.90234375 57.78515625 C55.36189453 58.41099609 55.82144531 59.03683594 56.29492188 59.68164062 C60.71046355 65.87377322 60.71046355 65.87377322 60.83984375 70.09765625 C58.01373295 72.92376705 55.2494895 72.54031313 51.46484375 72.59765625 C50.79195313 72.63890625 50.1190625 72.68015625 49.42578125 72.72265625 C47.44140625 72.75390625 47.44140625 72.75390625 43.83984375 72.09765625 C39.83984375 67.40364994 39.83984375 67.40364994 39.83984375 64.09765625 C39.17984375 64.09765625 38.51984375 64.09765625 37.83984375 64.09765625 C36.60302734 62.72070312 36.60302734 62.72070312 35.23828125 60.81640625 C34.50351562 59.80126953 34.50351562 59.80126953 33.75390625 58.765625 C33.24601562 58.05019531 32.738125 57.33476562 32.21484375 56.59765625 C31.69921875 55.88222656 31.18359375 55.16679687 30.65234375 54.4296875 C29.37561416 52.65645196 28.10514348 50.87905677 26.83984375 49.09765625 C24.19232371 51.67550471 21.8955231 54.01413723 19.83984375 57.09765625 C19.17984375 57.09765625 18.51984375 57.09765625 17.83984375 57.09765625 C17.61296875 57.61328125 17.38609375 58.12890625 17.15234375 58.66015625 C15.35766757 61.9931263 13.3401936 65.24469296 10.83984375 68.09765625 C10.17984375 68.09765625 9.51984375 68.09765625 8.83984375 68.09765625 C8.17984375 69.41765625 7.51984375 70.73765625 6.83984375 72.09765625 C4.92388407 72.17899416 3.00692443 72.23699992 1.08984375 72.28515625 C-0.51117188 72.33736328 -0.51117188 72.33736328 -2.14453125 72.390625 C-5.4604348 72.06848411 -6.75032298 71.32616711 -9.16015625 69.09765625 C-8.28515625 64.34765625 -8.28515625 64.34765625 -7.16015625 62.09765625 C-6.50015625 62.09765625 -5.84015625 62.09765625 -5.16015625 62.09765625 C-4.50015625 60.44765625 -3.84015625 58.79765625 -3.16015625 57.09765625 C-2.50015625 57.09765625 -1.84015625 57.09765625 -1.16015625 57.09765625 C-0.9178125 56.5459375 -0.67546875 55.99421875 -0.42578125 55.42578125 C1.11595546 52.58974706 3.01371656 50.31923624 5.08984375 47.84765625 C8.44540302 43.82206583 11.63367456 39.74688254 14.6484375 35.4609375 C15.04160156 35.01105469 15.43476563 34.56117188 15.83984375 34.09765625 C16.49984375 34.09765625 17.15984375 34.09765625 17.83984375 34.09765625 C18.12859375 33.52015625 18.41734375 32.94265625 18.71484375 32.34765625 C19.75651042 30.26432292 20.79817708 28.18098958 21.83984375 26.09765625 C21.2365625 26.10925781 20.63328125 26.12085938 20.01171875 26.1328125 C18.81289063 26.14634766 18.81289063 26.14634766 17.58984375 26.16015625 C16.40648437 26.17755859 16.40648437 26.17755859 15.19921875 26.1953125 C11.01732283 26.02222078 11.01732283 26.02222078 8.83984375 25.09765625 C6.69921875 22.6640625 6.69921875 22.6640625 4.58984375 19.66015625 C3.8834375 18.67144531 3.17703125 17.68273437 2.44921875 16.6640625 C0.83984375 14.09765625 0.83984375 14.09765625 0.83984375 12.09765625 C0.17984375 12.09765625 -0.48015625 12.09765625 -1.16015625 12.09765625 C-5.22705766 7.10117738 -5.22705766 7.10117738 -4.97265625 3.28515625 C-3.73092634 -0.05796275 -3.76797486 0.11643927 0 0 Z " fill="#141414" transform="translate(426.16015625,254.90234375)"/>
<path d="M0 0 C1.09074326 -0.01210762 1.09074326 -0.01210762 2.20352173 -0.02445984 C3.75203047 -0.0383281 5.30057013 -0.04903792 6.84912109 -0.05688477 C9.18259192 -0.07389816 11.51456996 -0.11772867 13.84765625 -0.16210938 C24.96188865 -0.27771426 34.90961768 0.98805572 43.8515625 8.23828125 C43.8515625 8.89828125 43.8515625 9.55828125 43.8515625 10.23828125 C44.5115625 10.23828125 45.1715625 10.23828125 45.8515625 10.23828125 C54.55789178 19.14361234 56.40153688 28.89134869 56.33740234 40.88671875 C56.14147596 47.25252313 55.13124261 52.67453821 51.8515625 58.23828125 C51.1915625 58.23828125 50.5315625 58.23828125 49.8515625 58.23828125 C49.8515625 59.22828125 49.8515625 60.21828125 49.8515625 61.23828125 C49.1915625 61.23828125 48.5315625 61.23828125 47.8515625 61.23828125 C47.6865625 61.93953125 47.5215625 62.64078125 47.3515625 63.36328125 C43.91409905 69.95175287 36.97425278 73.04926281 30.21118164 75.42456055 C24.2078448 76.87860616 18.17061572 76.75388148 12.0324707 76.64990234 C9.76143549 76.61283027 7.49201277 76.60888786 5.22070312 76.609375 C-5.85242722 76.53429153 -5.85242722 76.53429153 -8.1484375 74.23828125 C-8.34375 70.98046875 -8.34375 70.98046875 -8.2734375 67.11328125 C-8.25539063 65.83195312 -8.23734375 64.550625 -8.21875 63.23046875 C-8.19554688 62.24304688 -8.17234375 61.255625 -8.1484375 60.23828125 C-5.19063485 58.75937993 -2.49736472 59.09122985 0.80078125 59.0625 C2.22071769 59.03928581 3.64063959 59.01516784 5.06054688 58.99023438 C7.29428613 58.95525193 9.52749593 58.92585113 11.76147461 58.91235352 C13.92106291 58.89675822 16.07910733 58.85646589 18.23828125 58.8125 C19.52951904 58.79791748 20.82075684 58.78333496 22.15112305 58.76831055 C27.54311727 57.99599284 31.21158306 55.87826069 35.1015625 51.98828125 C38.95180943 45.93789321 40.51176582 40.90276126 39.4921875 33.69921875 C37.89809376 27.57556599 34.23280467 22.5695264 28.8515625 19.23828125 C24.09332409 17.64896194 19.86458103 16.96638855 14.859375 16.859375 C13.57804687 16.82521484 12.29671875 16.79105469 10.9765625 16.75585938 C9.6432423 16.72851845 8.30990851 16.70183328 6.9765625 16.67578125 C4.33311288 16.6179992 1.69010172 16.55259593 -0.953125 16.484375 C-2.11827637 16.46044678 -3.28342773 16.43651855 -4.48388672 16.41186523 C-7.1484375 16.23828125 -7.1484375 16.23828125 -8.1484375 15.23828125 C-8.24753052 12.9066807 -8.27814254 10.57198183 -8.2734375 8.23828125 C-8.27601562 6.95953125 -8.27859375 5.68078125 -8.28125 4.36328125 C-8.04100069 -1.28964359 -4.71692404 0.04949096 0 0 Z " fill="#141414" transform="translate(105.1484375,250.76171875)"/>
<path d="M0 0 C2.90426322 0.0312847 4.07848385 0.19004112 6.6875 1.625 C8.1875 3.25 8.1875 3.25 8.1875 5.25 C8.8475 5.25 9.5075 5.25 10.1875 5.25 C10.1875 5.91 10.1875 6.57 10.1875 7.25 C10.74163574 7.47743896 11.29577148 7.70487793 11.86669922 7.93920898 C14.86149705 9.63067433 16.91116236 11.76782362 19.3203125 14.22265625 C19.79822235 14.70576767 20.2761322 15.18887909 20.76852417 15.68663025 C22.28803614 17.22389041 23.8006639 18.76769326 25.3125 20.3125 C26.83234559 21.85997477 28.35363419 23.40595926 29.87789917 24.94908142 C31.25668742 26.34570801 32.63066065 27.74708323 34.00439453 29.14868164 C36.00430452 31.28259545 36.00430452 31.28259545 38.1875 32.25 C38.1875 32.91 38.1875 33.57 38.1875 34.25 C39.1775 34.58 40.1675 34.91 41.1875 35.25 C41.1875 35.91 41.1875 36.57 41.1875 37.25 C41.8475 37.25 42.5075 37.25 43.1875 37.25 C43.1875 37.91 43.1875 38.57 43.1875 39.25 C43.8475 39.25 44.5075 39.25 45.1875 39.25 C45.1875 39.91 45.1875 40.57 45.1875 41.25 C45.8475 41.25 46.5075 41.25 47.1875 41.25 C47.1875 41.91 47.1875 42.57 47.1875 43.25 C47.765 43.476875 48.3425 43.70375 48.9375 43.9375 C51.97488074 45.70930543 53.37622454 47.20964477 55.1875 50.25 C55.86937737 54.9815637 55.87218038 58.22297943 53.1875 62.25 C52.5275 62.25 51.8675 62.25 51.1875 62.25 C51.1875 62.91 51.1875 63.57 51.1875 64.25 C50.5275 64.25 49.8675 64.25 49.1875 64.25 C49.1875 64.91 49.1875 65.57 49.1875 66.25 C48.5275 66.25 47.8675 66.25 47.1875 66.25 C47.1875 66.91 47.1875 67.57 47.1875 68.25 C46.5275 68.25 45.8675 68.25 45.1875 68.25 C44.6925 69.735 44.6925 69.735 44.1875 71.25 C43.5275 71.25 42.8675 71.25 42.1875 71.25 C42.1875 71.91 42.1875 72.57 42.1875 73.25 C41.5275 73.25 40.8675 73.25 40.1875 73.25 C40.1875 73.91 40.1875 74.57 40.1875 75.25 C39.5275 75.25 38.8675 75.25 38.1875 75.25 C38.1875 75.91 38.1875 76.57 38.1875 77.25 C37.5275 77.25 36.8675 77.25 36.1875 77.25 C36.1875 77.91 36.1875 78.57 36.1875 79.25 C35.5275 79.25 34.8675 79.25 34.1875 79.25 C34.1875 79.91 34.1875 80.57 34.1875 81.25 C33.5275 81.25 32.8675 81.25 32.1875 81.25 C32.1875 81.91 32.1875 82.57 32.1875 83.25 C31.5275 83.25 30.8675 83.25 30.1875 83.25 C29.6925 84.735 29.6925 84.735 29.1875 86.25 C28.5275 86.25 27.8675 86.25 27.1875 86.25 C27.1875 86.91 27.1875 87.57 27.1875 88.25 C26.5275 88.25 25.8675 88.25 25.1875 88.25 C24.93677734 88.82596924 24.68605469 89.40193848 24.42773438 89.99536133 C23.02104259 92.55260515 21.41244307 94.26786236 19.34375 96.32421875 C18.21646484 97.44860352 18.21646484 97.44860352 17.06640625 98.59570312 C16.28136719 99.36849609 15.49632812 100.14128906 14.6875 100.9375 C13.50994141 102.1140918 13.50994141 102.1140918 12.30859375 103.31445312 C5.42778707 110.14214895 5.42778707 110.14214895 1.3125 110.5 C-2.2082881 110.21833695 -3.46087188 109.86292013 -5.8125 107.25 C-6.8212026 103.60315214 -7.055456 100.84076177 -5.8125 97.25 C-5.1525 97.25 -4.4925 97.25 -3.8125 97.25 C-3.8125 96.59 -3.8125 95.93 -3.8125 95.25 C-3.1525 95.25 -2.4925 95.25 -1.8125 95.25 C-1.8125 94.59 -1.8125 93.93 -1.8125 93.25 C-1.1525 93.25 -0.4925 93.25 0.1875 93.25 C0.1875 92.59 0.1875 91.93 0.1875 91.25 C0.8475 91.25 1.5075 91.25 2.1875 91.25 C2.455625 90.610625 2.72375 89.97125 3 89.3125 C4.1875 87.25 4.1875 87.25 7.1875 86.25 C7.1875 85.59 7.1875 84.93 7.1875 84.25 C7.8475 84.25 8.5075 84.25 9.1875 84.25 C9.1875 83.59 9.1875 82.93 9.1875 82.25 C9.8475 82.25 10.5075 82.25 11.1875 82.25 C11.1875 81.59 11.1875 80.93 11.1875 80.25 C11.8475 80.25 12.5075 80.25 13.1875 80.25 C13.1875 79.59 13.1875 78.93 13.1875 78.25 C13.8475 78.25 14.5075 78.25 15.1875 78.25 C15.1875 77.59 15.1875 76.93 15.1875 76.25 C15.8475 76.25 16.5075 76.25 17.1875 76.25 C17.56249634 75.3849585 17.56249634 75.3849585 17.94506836 74.50244141 C19.35897494 71.93912795 20.97262074 70.25402192 23.06640625 68.2109375 C23.82244141 67.46585937 24.57847656 66.72078125 25.35742188 65.953125 C26.14697266 65.18484375 26.93652344 64.4165625 27.75 63.625 C29.31597891 62.09336831 30.87988939 60.55961805 32.44140625 59.0234375 C33.48276733 58.00902588 33.48276733 58.00902588 34.54516602 56.97412109 C36.26706495 55.33511449 36.26706495 55.33511449 37.1875 53.25 C36.5275 53.25 35.8675 53.25 35.1875 53.25 C35.1875 52.59 35.1875 51.93 35.1875 51.25 C34.5275 51.25 33.8675 51.25 33.1875 51.25 C33.1875 50.59 33.1875 49.93 33.1875 49.25 C32.61531738 49.00451416 32.04313477 48.75902832 31.45361328 48.50610352 C28.8037938 47.03731217 27.04650717 45.31863952 24.9296875 43.15234375 C24.13949219 42.35119141 23.34929687 41.55003906 22.53515625 40.72460938 C21.71917969 39.88736328 20.90320313 39.05011719 20.0625 38.1875 C18.43711294 36.52777378 16.80961373 34.87011253 15.1796875 33.21484375 C14.46151855 32.4787085 13.74334961 31.74257324 13.00341797 30.98413086 C11.29228455 29.17976993 11.29228455 29.17976993 9.1875 28.25 C9.1875 27.59 9.1875 26.93 9.1875 26.25 C8.589375 25.981875 7.99125 25.71375 7.375 25.4375 C5.18902146 24.25082594 3.77417406 23.15400887 2.1875 21.25 C2.1875 20.59 2.1875 19.93 2.1875 19.25 C1.5275 19.25 0.8675 19.25 0.1875 19.25 C0.1875 18.59 0.1875 17.93 0.1875 17.25 C-0.410625 16.981875 -1.00875 16.71375 -1.625 16.4375 C-5.14884328 14.52455651 -6.49898904 13.28010745 -7.6875 9.375 C-7.8360372 5.66157001 -6.99726995 4.19103647 -4.8125 1.25 C-3.8125 0.25 -3.8125 0.25 0 0 Z " fill="#3D5D5E" transform="translate(288.8125,122.75)"/>
<path d="M0 0 C3.06637864 1.99314611 3.80523321 3.22093283 4.6875 6.75 C3.63938587 11.70472133 0.48851347 14.47397564 -3 18 C-3.763125 18.825 -4.52625 19.65 -5.3125 20.5 C-7 22 -7 22 -9 22 C-9 22.66 -9 23.32 -9 24 C-10.64453125 25.69140625 -10.64453125 25.69140625 -12.8125 27.5625 C-13.52019531 28.18253906 -14.22789062 28.80257812 -14.95703125 29.44140625 C-17 31 -17 31 -20 32 C-20 32.66 -20 33.32 -20 34 C-20.66 34 -21.32 34 -22 34 C-22 34.66 -22 35.32 -22 36 C-22.66 36 -23.32 36 -24 36 C-24 36.66 -24 37.32 -24 38 C-24.66 38 -25.32 38 -26 38 C-26 38.66 -26 39.32 -26 40 C-27.609375 41.65625 -27.609375 41.65625 -29.75 43.5 C-30.44609375 44.1084375 -31.1421875 44.716875 -31.859375 45.34375 C-33.84460792 46.87976963 -35.71872045 47.9723966 -38 49 C-38 49.66 -38 50.32 -38 51 C-38.99 51.495 -38.99 51.495 -40 52 C-40 53.32 -40 54.64 -40 56 C-39.34 56 -38.68 56 -38 56 C-38 56.66 -38 57.32 -38 58 C-37.46375 58.20625 -36.9275 58.4125 -36.375 58.625 C-33.08021991 60.53250426 -30.40636372 63.04819384 -28 66 C-28 66.66 -28 67.32 -28 68 C-27.34 68 -26.68 68 -26 68 C-26 68.66 -26 69.32 -26 70 C-25.34 70 -24.68 70 -24 70 C-24 70.66 -24 71.32 -24 72 C-23.34 72 -22.68 72 -22 72 C-22 72.66 -22 73.32 -22 74 C-21.34 74 -20.68 74 -20 74 C-20 74.66 -20 75.32 -20 76 C-19.34 76 -18.68 76 -18 76 C-18 76.66 -18 77.32 -18 78 C-17.34 78 -16.68 78 -16 78 C-14.34375 79.71484375 -14.34375 79.71484375 -12.5 81.9375 C-10.11073001 84.92045179 -10.11073001 84.92045179 -7 87 C-7 87.66 -7 88.32 -7 89 C-6.34 89 -5.68 89 -5 89 C-5 89.66 -5 90.32 -5 91 C-4.34 91 -3.68 91 -3 91 C-3 91.66 -3 92.32 -3 93 C-2.34 93 -1.68 93 -1 93 C1.55846145 95.46005908 1.99222295 96.93778361 2.4375 100.5 C2 104 2 104 0.3125 106.375 C-2.31196417 108.21921807 -3.78929947 108.92169023 -7 109 C-12.35468211 106.5180853 -16.22128763 102.07258596 -20.3125 97.9375 C-21.05306641 97.20466797 -21.79363281 96.47183594 -22.55664062 95.71679688 C-23.25595703 95.01490234 -23.95527344 94.31300781 -24.67578125 93.58984375 C-25.31427002 92.94909912 -25.95275879 92.30835449 -26.6105957 91.64819336 C-28 90 -28 90 -28 88 C-28.66 88 -29.32 88 -30 88 C-30 87.34 -30 86.68 -30 86 C-30.58265625 85.7421875 -31.1653125 85.484375 -31.765625 85.21875 C-34.1802903 83.90165983 -35.81740177 82.44911616 -37.75 80.5 C-38.36359375 79.8915625 -38.9771875 79.283125 -39.609375 78.65625 C-41 77 -41 77 -41 75 C-41.66 75 -42.32 75 -43 75 C-43 74.34 -43 73.68 -43 73 C-43.66 73 -44.32 73 -45 73 C-45 72.34 -45 71.68 -45 71 C-45.87398437 70.61328125 -45.87398437 70.61328125 -46.765625 70.21875 C-49.1802903 68.90165983 -50.81740177 67.44911616 -52.75 65.5 C-53.36359375 64.8915625 -53.9771875 64.283125 -54.609375 63.65625 C-56 62 -56 62 -56 60 C-56.66 60 -57.32 60 -58 60 C-60.09972674 56.58794404 -60.33083127 53.9699753 -60 50 C-58.70453992 46.74733834 -57.07146651 44.9532244 -54.390625 42.73828125 C-51.46823623 40.26533845 -48.62946415 37.74838682 -45.859375 35.10546875 C-45.18132812 34.46029297 -44.50328125 33.81511719 -43.8046875 33.15039062 C-42.41696899 31.82467094 -41.03160703 30.49648074 -39.6484375 29.16601562 C-38.97554687 28.52728516 -38.30265625 27.88855469 -37.609375 27.23046875 C-37.01092773 26.65707764 -36.41248047 26.08368652 -35.79589844 25.49291992 C-33.95629337 23.96366694 -32.17519964 22.97836098 -30 22 C-30 21.34 -30 20.68 -30 20 C-28.4609375 18.484375 -28.4609375 18.484375 -26.375 16.75 C-23.65952241 14.45339927 -21.08737736 12.12849225 -18.625 9.5625 C-16 7 -16 7 -14 7 C-14 6.34 -14 5.68 -14 5 C-9.40520636 0.17546668 -6.64211002 -0.96417726 0 0 Z " fill="#3B5C5C" transform="translate(222,123)"/>
<path d="M0 0 C3.67997222 0.10135237 5.52853504 0.51059465 8.35913086 2.90771484 C12.80834961 9.30979979 12.80834961 9.30979979 12.80834961 12.74755859 C13.46834961 12.74755859 14.12834961 12.74755859 14.80834961 12.74755859 C16.39293129 15.09395839 17.86592427 17.44014568 19.30834961 19.87255859 C24.03520696 27.81938924 29.3853058 35.26763554 34.80834961 42.74755859 C34.82293213 41.54631348 34.83751465 40.34506836 34.85253906 39.10742188 C34.91040953 34.66050087 34.98764223 30.21409226 35.07080078 25.76757812 C35.1041033 23.84123028 35.1321185 21.9147836 35.15478516 19.98828125 C35.18823385 17.2227151 35.24054297 14.45805907 35.29663086 11.69287109 C35.30302078 10.82824249 35.30941071 9.96361389 35.31599426 9.07278442 C35.37597656 6.64648438 35.37597656 6.64648438 35.80834961 2.74755859 C39.0474919 0.5881304 40.05694694 0.47522882 43.80834961 0.49755859 C44.67459961 0.49240234 45.54084961 0.48724609 46.43334961 0.48193359 C48.80834961 0.74755859 48.80834961 0.74755859 51.80834961 2.74755859 C52.16911316 5.5696106 52.16911316 5.5696106 52.14892578 9.21679688 C52.1495829 10.21209915 52.1495829 10.21209915 52.1502533 11.22750854 C52.14816029 13.42459359 52.1248066 15.62091908 52.10131836 17.81787109 C52.09572419 19.33958519 52.09145325 20.86130469 52.0884552 22.38302612 C52.07699222 26.39120358 52.04751291 30.39905571 52.01434326 34.40710449 C51.98367345 38.49580483 51.9699565 42.58455767 51.95483398 46.67333984 C51.92264428 54.69822885 51.87143077 62.72285327 51.80834961 70.74755859 C51.14834961 70.74755859 50.48834961 70.74755859 49.80834961 70.74755859 C49.80834961 71.40755859 49.80834961 72.06755859 49.80834961 72.74755859 C47.38898644 72.91005314 44.98053102 73.02853676 42.55834961 73.12255859 C41.87643555 73.17283203 41.19452148 73.22310547 40.49194336 73.27490234 C38.48022461 73.33349609 38.48022461 73.33349609 34.80834961 72.74755859 C30.80834961 68.08089193 30.80834961 68.08089193 30.80834961 64.74755859 C30.14834961 64.74755859 29.48834961 64.74755859 28.80834961 64.74755859 C28.80834961 63.75755859 28.80834961 62.76755859 28.80834961 61.74755859 C28.14834961 61.74755859 27.48834961 61.74755859 26.80834961 61.74755859 C25.49902344 60.0703125 25.49902344 60.0703125 24.01538086 57.72412109 C23.46688477 56.86689453 22.91838867 56.00966797 22.35327148 55.12646484 C21.78157227 54.21767578 21.20987305 53.30888672 20.62084961 52.37255859 C16.17748276 45.37308923 11.60665564 38.50889804 6.80834961 31.74755859 C4.38928732 28.31174181 1.97416876 24.8731562 -0.44165039 21.43505859 C-1.05266602 20.56816406 -1.66368164 19.70126953 -2.29321289 18.80810547 C-2.88360352 17.96699219 -3.47399414 17.12587891 -4.08227539 16.25927734 C-4.60853516 15.51121826 -5.13479492 14.76315918 -5.67700195 13.99243164 C-10.72147463 6.51597673 -10.72147463 6.51597673 -10.19165039 1.74755859 C-7.84212292 -0.60196887 -3.15868013 0.09179389 0 0 Z " fill="#171717" transform="translate(273.191650390625,252.25244140625)"/>
<path d="M0 0 C0.66 0.33 1.32 0.66 2 1 C2 1.66 2 2.32 2 3 C2.66 3 3.32 3 4 3 C4.46468143 8.5761771 4.07638487 12.3881473 1.8203125 17.53125 C1.365354 18.58280273 0.91039551 19.63435547 0.44165039 20.71777344 C-0.03409424 21.8009082 -0.50983887 22.88404297 -1 24 C-1.89663606 26.09806006 -2.79117132 28.19701919 -3.68359375 30.296875 C-4.13331543 31.3499585 -4.58303711 32.40304199 -5.04638672 33.48803711 C-8.91185396 42.55200829 -12.70697597 51.60946315 -16.07836914 60.86938477 C-17.36777251 64.38981687 -18.77481926 67.79764344 -20.375 71.1875 C-22.88193393 76.51675631 -24.93119362 81.99037635 -27 87.5 C-35.18507946 109.18150993 -35.18507946 109.18150993 -40 112 C-43.42819926 111.87971231 -45.94725831 111.6667364 -48.875 109.8125 C-50.60920902 107.01849658 -50.86137471 105.35254328 -51 102 C-49.81459935 98.11314182 -48.15736944 94.45582324 -46.5 90.75 C-45.56717139 88.59584752 -44.63619667 86.44089133 -43.70703125 84.28515625 C-43.24506348 83.22184082 -42.7830957 82.15852539 -42.30712891 81.06298828 C-40.49259279 76.81099535 -38.82785712 72.50902153 -37.1875 68.1875 C-35.43998892 63.61704804 -33.65196725 59.11551007 -31.5625 54.6875 C-28.65645734 48.50136959 -26.34833706 42.09212267 -23.94824219 35.69799805 C-21.87746626 30.21240465 -19.67309808 24.85360336 -17.1484375 19.55859375 C-15.28907282 15.41613163 -13.81237619 11.13005399 -12.30859375 6.84765625 C-9.46585871 0.66152537 -6.70752388 -0.62106703 0 0 Z " fill="#3C5D5D" transform="translate(276,122)"/>
<path d="M0 0 C1.95766281 -0.08082094 3.91626728 -0.13910778 5.875 -0.1875 C7.51082031 -0.23970703 7.51082031 -0.23970703 9.1796875 -0.29296875 C10.11039063 -0.19628906 11.04109375 -0.09960938 12 0 C14.12794168 3.19191253 14.26099543 4.07320984 14.31884766 7.74682617 C14.33871735 8.70759567 14.35858704 9.66836517 14.37905884 10.6582489 C14.39061005 11.69270645 14.40216125 12.727164 14.4140625 13.79296875 C14.43342865 14.85413406 14.4527948 15.91529938 14.4727478 17.00862122 C14.53257833 20.40149878 14.57894321 23.7944102 14.625 27.1875 C14.66317655 29.48634301 14.70222809 31.78517167 14.7421875 34.08398438 C14.83828268 39.72252895 14.92332006 45.36115979 15 51 C15.66 51 16.32 51 17 51 C17 51.66 17 52.32 17 53 C17.66 53 18.32 53 19 53 C19 53.66 19 54.32 19 55 C20.423125 55.433125 20.423125 55.433125 21.875 55.875 C25 57 25 57 27 59 C27.265625 61.75 27.265625 61.75 27.25 65 C27.25515625 66.0725 27.2603125 67.145 27.265625 68.25 C27 71 27 71 25 73 C18.40830158 73.80975606 13.3995682 70.95941246 8.30078125 67.09765625 C2.70452598 61.99546766 -1.61280284 55.31189071 -2.17425537 47.60942078 C-2.23103831 44.70891199 -2.22469986 41.81498213 -2.1953125 38.9140625 C-2.1924826 37.85714203 -2.18965271 36.80022156 -2.18673706 35.71127319 C-2.1755785 32.34906499 -2.15048159 28.98712714 -2.125 25.625 C-2.11496462 23.33984761 -2.10583975 21.05469102 -2.09765625 18.76953125 C-2.07565332 13.17959589 -2.04221873 7.58981727 -2 2 C-1.34 2 -0.68 2 0 2 C0 1.34 0 0.68 0 0 Z " fill="#1C1C1C" transform="translate(181,251)"/>
<path d="M0 0 C1.0725 0.01417969 2.145 0.02835938 3.25 0.04296875 C4.3225 0.04941406 5.395 0.05585938 6.5 0.0625 C9.25 0.23046875 9.25 0.23046875 11.25 1.23046875 C11.4033402 7.988796 11.50770894 14.74666758 11.57958984 21.50634766 C11.60958469 23.80111453 11.65039491 26.0957685 11.70263672 28.39013672 C12.27793805 54.32381832 12.27793805 54.32381832 3.30126953 64.42285156 C-1.10108812 68.84072308 -6.67019718 71.82425585 -12.75 73.23046875 C-16.29545455 72.6850142 -16.29545455 72.6850142 -17.75 71.23046875 C-17.82271741 68.8773332 -17.83370868 66.52213207 -17.8125 64.16796875 C-17.80347656 62.87761719 -17.79445312 61.58726562 -17.78515625 60.2578125 C-17.77355469 59.25878906 -17.76195312 58.25976562 -17.75 57.23046875 C-12 54.23046875 -12 54.23046875 -9.75 54.23046875 C-9.75 53.57046875 -9.75 52.91046875 -9.75 52.23046875 C-9.09 52.23046875 -8.43 52.23046875 -7.75 52.23046875 C-5.50390724 46.79904884 -5.43920265 41.86724761 -5.40625 36.08984375 C-5.3916272 35.12645081 -5.37700439 34.16305786 -5.36193848 33.17047119 C-5.29982606 29.06397429 -5.2599058 24.95733342 -5.21826172 20.85058594 C-5.18463418 17.84684182 -5.13952147 14.84342329 -5.09375 11.83984375 C-5.0884729 10.90654236 -5.0831958 9.97324097 -5.07775879 9.01165771 C-5.06434448 8.15026184 -5.05093018 7.28886597 -5.03710938 6.40136719 C-5.02981812 5.64225037 -5.02252686 4.88313354 -5.01501465 4.10101318 C-4.54575164 0.78882906 -3.16665703 0.26538745 0 0 Z " fill="#1B1B1B" transform="translate(229.75,251.76953125)"/>
<path d="M0 0 C0.89553589 0.00142502 1.79107178 0.00285004 2.71374512 0.00431824 C3.72819702 0.00124161 4.74264893 -0.00183502 5.7878418 -0.00500488 C6.88680786 0.00218063 7.98577393 0.00936615 9.11804199 0.01676941 C10.80467957 0.01745674 10.80467957 0.01745674 12.52539062 0.01815796 C14.90605726 0.02118304 17.28672188 0.02907692 19.6673584 0.04142761 C23.32156346 0.05966217 26.97551499 0.06193749 30.62976074 0.06169128 C32.93835669 0.06660715 35.24695092 0.07243577 37.55554199 0.07926941 C38.65450806 0.08038223 39.75347412 0.08149506 40.88574219 0.0826416 C42.40742004 0.09221138 42.40742004 0.09221138 43.95983887 0.10197449 C44.85537476 0.10578629 45.75091064 0.10959808 46.67358398 0.11352539 C48.83679199 0.24723816 48.83679199 0.24723816 50.83679199 1.24723816 C50.86364295 3.72647617 50.88355747 6.20542656 50.89929199 8.68473816 C50.9076709 9.39178894 50.9160498 10.09883972 50.92468262 10.82731628 C50.93332787 12.63417375 50.88899211 14.44111419 50.83679199 16.24723816 C49.18560425 17.8984259 47.25448744 17.38303847 44.98156738 17.39250183 C43.9470192 17.39888168 42.91247101 17.40526154 41.84657288 17.41183472 C40.15757118 17.41350395 40.15757118 17.41350395 38.43444824 17.41520691 C37.2864122 17.41853531 36.13837616 17.42186371 34.95555115 17.42529297 C32.5218445 17.43036717 30.08813087 17.43270114 27.65441895 17.43254089 C23.91887007 17.4347267 20.18361664 17.45287562 16.44812012 17.47184753 C14.08939717 17.47478141 11.73067282 17.47676624 9.37194824 17.47770691 C8.24797134 17.48489243 7.12399445 17.49207794 5.96595764 17.4994812 C4.92825729 17.49640457 3.89055695 17.49332794 2.82141113 17.49015808 C1.90509415 17.4915831 0.98877716 17.49300812 0.04469299 17.49447632 C-2.16320801 17.24723816 -2.16320801 17.24723816 -4.16320801 15.24723816 C-4.42883301 12.27848816 -4.42883301 12.27848816 -4.41320801 8.74723816 C-4.41836426 7.58192566 -4.42352051 6.41661316 -4.42883301 5.21598816 C-4.11676764 1.72819876 -3.61904726 0.41362947 0 0 Z " fill="#191919" transform="translate(22.1632080078125,309.7527618408203)"/>
<path d="M0 0 C2.12948106 -0.01275898 4.25924791 0.00275024 6.38842773 0.04077148 C7.51143784 0.04310287 8.63444794 0.04543427 9.79148865 0.0478363 C12.16624544 0.05758392 14.5409786 0.07939397 16.91552734 0.11230469 C20.5611389 0.16171773 24.20540221 0.17378391 27.85131836 0.17944336 C30.15536925 0.1935284 32.45940837 0.20973246 34.76342773 0.22827148 C35.85925674 0.23363419 36.95508575 0.23899689 38.0841217 0.24452209 C39.60095802 0.26850319 39.60095802 0.26850319 41.1484375 0.29296875 C42.04095718 0.30360855 42.93347687 0.31424835 43.8530426 0.32521057 C46.00952148 0.59936523 46.00952148 0.59936523 48.00952148 2.59936523 C48.23999023 5.60327148 48.23999023 5.60327148 48.19702148 9.16186523 C48.19057617 10.3387793 48.18413086 11.51569336 48.17749023 12.72827148 C48.00952148 15.59936523 48.00952148 15.59936523 47.00952148 16.59936523 C45.36325205 16.70848187 43.7123375 16.74842769 42.0625 16.76049805 C40.48064659 16.77490936 40.48064659 16.77490936 38.86683655 16.78961182 C37.14502419 16.79598663 37.14502419 16.79598663 35.38842773 16.80249023 C34.21819565 16.80819031 33.04796356 16.81389038 31.8422699 16.81976318 C29.36148996 16.82922964 26.88069736 16.83575366 24.39990234 16.83959961 C20.59181972 16.84931473 16.78427436 16.88032733 12.97631836 16.91186523 C10.57202471 16.91839382 8.16772718 16.92364486 5.76342773 16.92749023 C4.61757706 16.93983704 3.47172638 16.95218384 2.29115295 16.96490479 C1.23343185 16.96190369 0.17571075 16.95890259 -0.9140625 16.95581055 C-1.84814438 16.95945618 -2.78222626 16.96310181 -3.74461365 16.96685791 C-4.48574905 16.84558533 -5.22688446 16.72431274 -5.99047852 16.59936523 C-8.40989822 12.97023568 -8.71033137 9.82559811 -7.99047852 5.59936523 C-6.52130789 0.89527892 -4.61264427 0.24593147 0 0 Z " fill="#141414" transform="translate(352.990478515625,252.400634765625)"/>
<path d="M0 0 C1.58669495 -0.00472824 1.58669495 -0.00472824 3.20544434 -0.009552 C4.93196228 -0.00651566 4.93196228 -0.00651566 6.69335938 -0.00341797 C8.45226501 -0.00485306 8.45226501 -0.00485306 10.2467041 -0.00631714 C12.73169 -0.00699917 15.21667766 -0.00514331 17.70166016 -0.00097656 C21.52054825 0.00437134 25.33931872 -0.00092083 29.15820312 -0.00732422 C31.56575547 -0.00666344 33.97330774 -0.00538229 36.38085938 -0.00341797 C38.10737732 -0.00645432 38.10737732 -0.00645432 39.86877441 -0.009552 C40.92657104 -0.00639984 41.98436768 -0.00324768 43.07421875 0 C44.47867249 0.00119339 44.47867249 0.00119339 45.91149902 0.00241089 C48.03710938 0.12939453 48.03710938 0.12939453 49.03710938 1.12939453 C49.1362024 3.46099508 49.16681442 5.79569395 49.16210938 8.12939453 C49.16597656 10.04751953 49.16597656 10.04751953 49.16992188 12.00439453 C49.03710938 15.12939453 49.03710938 15.12939453 48.03710938 16.12939453 C46.38519542 16.22807962 44.7290772 16.2573829 43.07421875 16.25878906 C42.01642212 16.26194122 40.95862549 16.26509338 39.86877441 16.26834106 C38.71776245 16.26631683 37.56675049 16.2642926 36.38085938 16.26220703 C34.62195374 16.26364212 34.62195374 16.26364212 32.82751465 16.2651062 C30.34252875 16.26578823 27.85754109 16.26393237 25.37255859 16.25976562 C21.5536705 16.25441772 17.73490003 16.25970989 13.91601562 16.26611328 C11.50846328 16.2654525 9.10091101 16.26417135 6.69335938 16.26220703 C4.96684143 16.26524338 4.96684143 16.26524338 3.20544434 16.26834106 C2.14764771 16.2651889 1.08985107 16.26203674 0 16.25878906 C-1.40445374 16.25759567 -1.40445374 16.25759567 -2.83728027 16.25637817 C-4.96289062 16.12939453 -4.96289062 16.12939453 -5.96289062 15.12939453 C-6.06198365 12.79779398 -6.09259567 10.46309512 -6.08789062 8.12939453 C-6.09046875 6.85064453 -6.09304687 5.57189453 -6.09570312 4.25439453 C-5.88533194 -0.69551571 -4.49833344 0.00382232 0 0 Z " fill="#0B0B0B" transform="translate(23.962890625,250.87060546875)"/>
<path d="M0 0 C0.99120346 -0.00960754 1.98240692 -0.01921509 3.00364685 -0.02911377 C4.07760208 -0.03336365 5.15155731 -0.03761353 6.25805664 -0.04199219 C7.35791397 -0.04769226 8.4577713 -0.05339233 9.59095764 -0.05926514 C11.92032913 -0.06872275 14.24971405 -0.07525213 16.57910156 -0.07910156 C20.15005687 -0.08881779 23.72043938 -0.11983894 27.29125977 -0.15136719 C29.55102196 -0.15789595 31.81078829 -0.16314692 34.07055664 -0.16699219 C35.14248764 -0.17933899 36.21441864 -0.19168579 37.3188324 -0.20440674 C38.31318802 -0.20140564 39.30754364 -0.19840454 40.33203125 -0.1953125 C41.64535683 -0.20078094 41.64535683 -0.20078094 42.98521423 -0.20635986 C45.71582536 0.2405251 46.60100623 0.95744619 48.23071289 3.16113281 C48.55883789 5.79003906 48.55883789 5.79003906 48.48071289 8.72363281 C48.46524414 9.69429688 48.44977539 10.66496094 48.43383789 11.66503906 C48.23071289 14.16113281 48.23071289 14.16113281 47.23071289 16.16113281 C29.41071289 16.16113281 11.59071289 16.16113281 -6.76928711 16.16113281 C-6.76928711 11.21113281 -6.76928711 6.26113281 -6.76928711 1.16113281 C-4.32932353 -0.05884897 -2.72747563 0.02128964 0 0 Z " fill="#161616" transform="translate(353.769287109375,308.8388671875)"/>
<path d="M0 0 C0.86777573 -0.0127597 1.73555145 -0.02551941 2.62962341 -0.03866577 C4.03124474 -0.04200424 4.03124474 -0.04200424 5.46118164 -0.04541016 C6.42407608 -0.05206696 7.38697052 -0.05872375 8.37904358 -0.06558228 C10.41576222 -0.07570859 12.45251403 -0.0803993 14.48925781 -0.08007812 C17.60610564 -0.08445128 20.72153754 -0.12077121 23.83813477 -0.15869141 C25.81664554 -0.16455954 27.79516305 -0.16852895 29.77368164 -0.17041016 C30.70607162 -0.18478119 31.63846161 -0.19915222 32.59910583 -0.21395874 C39.04953777 -0.1683853 39.04953777 -0.1683853 42.27441406 2.16479492 C43.99647591 4.76205675 44.16156668 6.25715531 44.05883789 9.35302734 C44.04594727 10.21025391 44.03305664 11.06748047 44.01977539 11.95068359 C43.68383789 14.29052734 43.68383789 14.29052734 41.68383789 17.29052734 C39.67248535 17.66474915 39.67248535 17.66474915 37.17407227 17.6628418 C36.23970337 17.66907059 35.30533447 17.67529938 34.34265137 17.68171692 C33.33118042 17.67250717 32.31970947 17.66329742 31.27758789 17.65380859 C30.24194702 17.6543071 29.20630615 17.6548056 28.13928223 17.65531921 C25.94692061 17.65297589 23.75455646 17.64323225 21.56225586 17.62670898 C18.19759177 17.60312375 14.83371981 17.60614526 11.46899414 17.61279297 C9.34268731 17.60721629 7.21638383 17.60010648 5.09008789 17.59130859 C3.57288147 17.5926757 3.57288147 17.5926757 2.02502441 17.59407043 C1.09065552 17.58453842 0.15628662 17.57500641 -0.80639648 17.56518555 C-2.04311096 17.55827446 -2.04311096 17.55827446 -3.30480957 17.55122375 C-5.31616211 17.29052734 -5.31616211 17.29052734 -7.31616211 15.29052734 C-7.61694336 12.32177734 -7.61694336 12.32177734 -7.62866211 8.79052734 C-7.64541992 7.62521484 -7.66217773 6.45990234 -7.67944336 5.25927734 C-7.55956055 4.27958984 -7.43967773 3.29990234 -7.31616211 2.29052734 C-4.21857633 0.22547016 -3.5146691 0.03512048 0 0 Z " fill="#111111" transform="translate(25.316162109375,279.70947265625)"/>
<path d="M0 0 C0.86785126 -0.01283524 1.73570251 -0.02567047 2.62985229 -0.03889465 C3.5694278 -0.04628159 4.5090033 -0.05366852 5.47705078 -0.0612793 C6.44136017 -0.06935104 7.40566956 -0.07742279 8.39920044 -0.08573914 C10.44189656 -0.09958285 12.48461584 -0.11030371 14.52734375 -0.11816406 C17.6529511 -0.13539106 20.77750469 -0.17927626 23.90283203 -0.22338867 C25.88589716 -0.23351422 27.86897129 -0.24203075 29.85205078 -0.2487793 C31.25534134 -0.27504143 31.25534134 -0.27504143 32.6869812 -0.30183411 C39.16882117 -0.2801411 39.16882117 -0.2801411 42.39013672 2.06274414 C44.02522384 4.51934623 44.28132933 5.81227764 44.17236328 8.73950195 C44.15947266 9.50391602 44.14658203 10.26833008 44.13330078 11.0559082 C43.79736328 13.17700195 43.79736328 13.17700195 41.79736328 16.17700195 C39.73458862 16.5377655 39.73458862 16.5377655 37.1640625 16.51757812 C36.20321747 16.51735153 35.24237244 16.51712494 34.25241089 16.51689148 C33.21279205 16.50140762 32.17317322 16.48592377 31.10205078 16.4699707 C30.03947052 16.46572586 28.97689026 16.46148102 27.8821106 16.45710754 C24.47860683 16.44027585 21.07568895 16.40261498 17.67236328 16.36450195 C15.3689864 16.34946094 13.06560026 16.33577153 10.76220703 16.32348633 C5.10703237 16.29035754 -0.54770275 16.2385441 -6.20263672 16.17700195 C-6.20263672 11.22700195 -6.20263672 6.27700195 -6.20263672 1.17700195 C-3.90450918 0.02793818 -2.55703925 0.03289819 0 0 Z " fill="#141414" transform="translate(353.20263671875,280.822998046875)"/>
<path d="M0 0 C1.93166016 0.01740234 1.93166016 0.01740234 3.90234375 0.03515625 C5.19269531 0.04417969 6.48304688 0.05320313 7.8125 0.0625 C8.81152344 0.07410156 9.81054688 0.08570313 10.83984375 0.09765625 C11.49984375 1.41765625 12.15984375 2.73765625 12.83984375 4.09765625 C13.49984375 4.09765625 14.15984375 4.09765625 14.83984375 4.09765625 C16.21882418 5.79576379 17.51943853 7.55801084 18.77734375 9.34765625 C19.46699219 10.3221875 20.15664063 11.29671875 20.8671875 12.30078125 C21.51816406 13.22375 22.16914063 14.14671875 22.83984375 15.09765625 C23.401875 15.82339844 23.96390625 16.54914063 24.54296875 17.296875 C26.18342133 19.57473235 26.62534924 21.30922766 26.83984375 24.09765625 C26.17984375 25.08765625 25.51984375 26.07765625 24.83984375 27.09765625 C23.84984375 26.76765625 22.85984375 26.43765625 21.83984375 26.09765625 C19.58428441 26.0311941 17.34913195 26.09909684 15.09375 26.16015625 C12.6847103 26.09335446 11.06743436 26.04229527 8.83984375 25.09765625 C6.69921875 22.6640625 6.69921875 22.6640625 4.58984375 19.66015625 C3.8834375 18.67144531 3.17703125 17.68273437 2.44921875 16.6640625 C0.83984375 14.09765625 0.83984375 14.09765625 0.83984375 12.09765625 C0.17984375 12.09765625 -0.48015625 12.09765625 -1.16015625 12.09765625 C-5.22705766 7.10117738 -5.22705766 7.10117738 -4.97265625 3.28515625 C-3.73092634 -0.05796275 -3.76797486 0.11643927 0 0 Z " fill="#1A1A1A" transform="translate(426.16015625,254.90234375)"/>
<path d="M0 0 C2.12438339 -0.08078641 4.2496323 -0.13909141 6.375 -0.1875 C7.55835938 -0.22230469 8.74171875 -0.25710938 9.9609375 -0.29296875 C11.46527344 -0.14794922 11.46527344 -0.14794922 13 0 C15.11780664 3.17670996 15.24892146 3.96247318 15.23046875 7.59765625 C15.22853516 8.48130859 15.22660156 9.36496094 15.22460938 10.27539062 C15.20624023 11.65500977 15.20624023 11.65500977 15.1875 13.0625 C15.18685547 13.98611328 15.18621094 14.90972656 15.18554688 15.86132812 C15.14046308 22.71907383 15.14046308 22.71907383 14 25 C9.38 25 4.76 25 0 25 C-1.21445591 22.57108818 -1.12924198 20.99280557 -1.1328125 18.28125 C-1.13410156 17.34925781 -1.13539063 16.41726563 -1.13671875 15.45703125 C-1.13285156 14.48121094 -1.12898438 13.50539063 -1.125 12.5 C-1.12886719 11.52417969 -1.13273437 10.54835938 -1.13671875 9.54296875 C-1.13542969 8.61097656 -1.13414062 7.67898438 -1.1328125 6.71875 C-1.13168457 5.86216797 -1.13055664 5.00558594 -1.12939453 4.12304688 C-1 2 -1 2 0 0 Z " fill="#191919" transform="translate(263,298)"/>
<path d="M0 0 C0.33 0.99 0.66 1.98 1 3 C0.01 3.99 -0.98 4.98 -2 6 C-1.34 6 -0.68 6 0 6 C0.33 7.98 0.66 9.96 1 12 C0.01 12.495 0.01 12.495 -1 13 C-0.34 13.66 0.32 14.32 1 15 C0.01 15 -0.98 15 -2 15 C-2 15.99 -2 16.98 -2 18 C-1.01 18 -0.02 18 1 18 C1.33 19.32 1.66 20.64 2 22 C-0.70734291 24.54808744 -2.33326978 25.90475283 -6.0625 26.4375 C-9.38680542 25.94239068 -10.75302186 25.49664238 -13 23 C-14.0087026 19.35315214 -14.242956 16.59076177 -13 13 C-12.34 13 -11.68 13 -11 13 C-11 12.34 -11 11.68 -11 11 C-10.34 11 -9.68 11 -9 11 C-9 10.34 -9 9.68 -9 9 C-8.34 9 -7.68 9 -7 9 C-7 8.34 -7 7.68 -7 7 C-6.34 7 -5.68 7 -5 7 C-4.731875 6.360625 -4.46375 5.72125 -4.1875 5.0625 C-3 3 -3 3 0 2 C0 1.34 0 0.68 0 0 Z " fill="#395A5A" transform="translate(296,207)"/>
<path d="M0 0 C7.25581395 -0.48372093 7.25581395 -0.48372093 10.5 1.625 C12.37956836 4.60098323 12.31424507 6.54330418 12 10 C11.34 9.34 10.68 8.68 10 8 C8.02 8.99 8.02 8.99 6 10 C6 9.34 6 8.68 6 8 C5.34 8 4.68 8 4 8 C4.33 6.35 4.66 4.7 5 3 C3.35 3 1.7 3 0 3 C0 2.01 0 1.02 0 0 Z " fill="#4E696A" transform="translate(214,123)"/>
<path d="M0 0 C0.33 0 0.66 0 1 0 C1.48586118 6.31619537 1.48586118 6.31619537 -0.6875 9.375 C-3.27430537 11.19275513 -4.84716608 11.8423583 -8 12 C-10.3125 11.0625 -10.3125 11.0625 -12 10 C-11.34 9.67 -10.68 9.34 -10 9 C-9.5359375 8.01 -9.5359375 8.01 -9.0625 7 C-8 5 -8 5 -5 4 C-4.01 5.485 -4.01 5.485 -3 7 C-2.01 6.67 -1.02 6.34 0 6 C0 4.02 0 2.04 0 0 Z " fill="#5C7777" transform="translate(223,220)"/>
<path d="M0 0 C0.33 0.66 0.66 1.32 1 2 C4.60960083 3.10293359 7.39039917 3.10293359 11 2 C11.33 1.34 11.66 0.68 12 0 C12.33 1.65 12.66 3.3 13 5 C10 7 10 7 6.5 6.8125 C1.7757085 5.71578947 1.7757085 5.71578947 0 3 C0 2.01 0 1.02 0 0 Z " fill="#5A7573" transform="translate(226,227)"/>
<path d="M0 0 C0.33 0.99 0.66 1.98 1 3 C0.01 3.99 -0.98 4.98 -2 6 C-1.34 6 -0.68 6 0 6 C0.33 7.98 0.66 9.96 1 12 C0.01 12.33 -0.98 12.66 -2 13 C-2.99 12.34 -3.98 11.68 -5 11 C-6.32567199 10.31822584 -7.65753688 9.64808564 -9 9 C-8.34 9 -7.68 9 -7 9 C-7 8.34 -7 7.68 -7 7 C-6.34 7 -5.68 7 -5 7 C-4.731875 6.360625 -4.46375 5.72125 -4.1875 5.0625 C-3 3 -3 3 0 2 C0 1.34 0 0.68 0 0 Z " fill="#597374" transform="translate(296,207)"/>
<path d="M0 0 C0.66 0 1.32 0 2 0 C0.55922954 3.36179774 -1.24750021 5.59156268 -4 8 C-4.66 8 -5.32 8 -6 8 C-6 8.66 -6 9.32 -6 10 C-6.66 10 -7.32 10 -8 10 C-8 10.66 -8 11.32 -8 12 C-8.66 12 -9.32 12 -10 12 C-10 12.66 -10 13.32 -10 14 C-10.66 14 -11.32 14 -12 14 C-12 13.01 -12 12.02 -12 11 C-11.34 11 -10.68 11 -10 11 C-10 10.34 -10 9.68 -10 9 C-9.34 9 -8.68 9 -8 9 C-8 8.34 -8 7.68 -8 7 C-7.01 6.34 -6.02 5.68 -5 5 C-5.33 3.68 -5.66 2.36 -6 1 C-3.525 1.99 -3.525 1.99 -1 3 C-0.67 2.01 -0.34 1.02 0 0 Z " fill="#617675" transform="translate(208,147)"/>
<path d="M0 0 C-1.38188453 3.21043882 -2.92421903 5.04936365 -5.625 7.25 C-6.57246094 8.03117188 -6.57246094 8.03117188 -7.5390625 8.828125 C-8.02117187 9.21484375 -8.50328125 9.6015625 -9 10 C-9.33 8.35 -9.66 6.7 -10 5 C-9.01 4.34 -8.02 3.68 -7 3 C-6.67 2.34 -6.34 1.68 -6 1 C-3.911361 0.32624548 -2.19636905 0 0 0 Z " fill="#4E6767" transform="translate(225,133)"/>
<path d="M0 0 C0 0.99 0 1.98 0 3 C-0.99 2.67 -1.98 2.34 -3 2 C-5.35188447 2.59793673 -7.68925595 3.25881795 -10 4 C-10 6.64 -10 9.28 -10 12 C-12 9 -12 9 -11.8125 6 C-9.94172163 -0.90748937 -6.43638743 -0.31654364 0 0 Z " fill="#6D8181" transform="translate(293,123)"/>
<path d="M0 0 C0.66 0 1.32 0 2 0 C2 0.66 2 1.32 2 2 C2.66 2 3.32 2 4 2 C4 2.66 4 3.32 4 4 C4.66 4 5.32 4 6 4 C6 4.66 6 5.32 6 6 C6.66 6 7.32 6 8 6 C8.33 6.99 8.66 7.98 9 9 C8.67 9.66 8.34 10.32 8 11 C7.34 11 6.68 11 6 11 C6 10.01 6 9.02 6 8 C4.68 7.34 3.36 6.68 2 6 C2 5.34 2 4.68 2 4 C1.34 4 0.68 4 0 4 C0 2.68 0 1.36 0 0 Z " fill="#64797A" transform="translate(213,210)"/>
<path d="M0 0 C1.98 0.66 3.96 1.32 6 2 C6 2.66 6 3.32 6 4 C5.01 4.495 5.01 4.495 4 5 C4 6.32 4 7.64 4 9 C3.01 8.67 2.02 8.34 1 8 C1 7.34 1 6.68 1 6 C0.01 5.67 -0.98 5.34 -2 5 C-1.34 3.35 -0.68 1.7 0 0 Z " fill="#496464" transform="translate(178,170)"/>
<path d="M0 0 C-0.33 1.32 -0.66 2.64 -1 4 C-2.65 4.33 -4.3 4.66 -6 5 C-5.67 5.99 -5.34 6.98 -5 8 C-7.49064888 8.68707555 -9.37886292 9 -12 9 C-10.57189185 7.49105554 -9.13218981 5.99307655 -7.6875 4.5 C-6.88699219 3.6646875 -6.08648437 2.829375 -5.26171875 1.96875 C-3 0 -3 0 0 0 Z " fill="#647979" transform="translate(209,130)"/>
<path d="M0 0 C6.75 -0.125 6.75 -0.125 9 1 C9 1.66 9 2.32 9 3 C9.66 3 10.32 3 11 3 C10.67 4.32 10.34 5.64 10 7 C10 6.01 10 5.02 10 4 C8.72125 3.855625 7.4425 3.71125 6.125 3.5625 C3.74307106 3.29357254 2.15547309 3.07773654 0 2 C0 1.34 0 0.68 0 0 Z " fill="#5A7070" transform="translate(269,122)"/>
<path d="M0 0 C0.66 0 1.32 0 2 0 C2.1875 3.375 2.1875 3.375 2 7 C1.01 7.66 0.02 8.32 -1 9 C-1.99 8.67 -2.98 8.34 -4 8 C-3.34 8 -2.68 8 -2 8 C-2.33 6.35 -2.66 4.7 -3 3 C-2.01 3 -1.02 3 0 3 C0 2.01 0 1.02 0 0 Z " fill="#355555" transform="translate(221,219)"/>
<path d="M0 0 C1.32 0.66 2.64 1.32 4 2 C3.67 3.32 3.34 4.64 3 6 C1.35 6.33 -0.3 6.66 -2 7 C-1.125 1.125 -1.125 1.125 0 0 Z " fill="#4A6667" transform="translate(267,123)"/>
<path d="M0 0 C0.66 0.33 1.32 0.66 2 1 C1.01 2.485 1.01 2.485 0 4 C0.33 4.33 0.66 4.66 1 5 C0.82364548 7.69082872 0.38164079 10.32851446 0 13 C-0.66 12.67 -1.32 12.34 -2 12 C-2.89093449 8.35526801 -3.23666047 5.57257469 -2 2 C-1.34 2 -0.68 2 0 2 C0 1.34 0 0.68 0 0 Z " fill="#6F8484" transform="translate(285,218)"/>
<path d="M0 0 C0.99 0.99 1.98 1.98 3 3 C1.35 3.33 -0.3 3.66 -2 4 C-2.33 4.99 -2.66 5.98 -3 7 C-4.32 6.67 -5.64 6.34 -7 6 C-4.69 4.02 -2.38 2.04 0 0 Z " fill="#66807F" transform="translate(180,155)"/>
<path d="M0 0 C4.41889613 1.35021826 6.34345343 3.26115668 9 7 C5 7 5 7 2.875 5.125 C2.25625 4.42375 1.6375 3.7225 1 3 C0.34 2.34 -0.32 1.68 -1 1 C-0.67 0.67 -0.34 0.34 0 0 Z " fill="#587573" transform="translate(297,129)"/>
<path d="M0 0 C0 4.33685836 -2.08014014 5.9443327 -5 9 C-5.99 9 -6.98 9 -8 9 C-8 8.34 -8 7.68 -8 7 C-6.25 5.2734375 -6.25 5.2734375 -4 3.375 C-3.2575 2.74335938 -2.515 2.11171875 -1.75 1.4609375 C-1.1725 0.97882813 -0.595 0.49671875 0 0 Z " fill="#697B7A" transform="translate(172,162)"/>
<path d="M0 0 C1.32 0.99 2.64 1.98 4 3 C3.01 3.99 2.02 4.98 1 6 C0.01 5.67 -0.98 5.34 -2 5 C-1.125 1.125 -1.125 1.125 0 0 Z " fill="#526C6B" transform="translate(294,226)"/>
<path d="M0 0 C0.66 0 1.32 0 2 0 C1.54917531 1.46067199 1.08906463 2.91848032 0.625 4.375 C0.36976563 5.18710938 0.11453125 5.99921875 -0.1484375 6.8359375 C-1 9 -1 9 -3 11 C-2.53199289 6.94393835 -2.12046792 3.53411321 0 0 Z " fill="#667C7B" transform="translate(270,151)"/>
<path d="M0 0 C0 2.62113708 -0.31292445 4.50935112 -1 7 C-2.65 7 -4.3 7 -6 7 C-4.02 4.69 -2.04 2.38 0 0 Z " fill="#779495" transform="translate(315,188)"/>
<path d="M0 0 C0.33 0 0.66 0 1 0 C1 2.97 1 5.94 1 9 C0.01 9.495 0.01 9.495 -1 10 C-1 9.34 -1 8.68 -1 8 C-1.66 8 -2.32 8 -3 8 C-2.67 7.01 -2.34 6.02 -2 5 C-1.34 5.33 -0.68 5.66 0 6 C0 4.02 0 2.04 0 0 Z " fill="#5A7674" transform="translate(343,173)"/>
<path d="M0 0 C2.475 0.99 2.475 0.99 5 2 C4.01 2.495 4.01 2.495 3 3 C2.67 3.99 2.34 4.98 2 6 C0.68 4.68 -0.64 3.36 -2 2 C-1.34 1.34 -0.68 0.68 0 0 Z " fill="#516C6E" transform="translate(313,160)"/>
<path d="M0 0 C0.66 0 1.32 0 2 0 C0.63016497 3.16115776 0.0109362 3.9927092 -3 6 C-3.99 4.35 -4.98 2.7 -6 1 C-3.525 1.99 -3.525 1.99 -1 3 C-0.67 2.01 -0.34 1.02 0 0 Z " fill="#526B6D" transform="translate(208,147)"/>
<path d="M0 0 C-1.36983503 3.16115776 -1.9890638 3.9927092 -5 6 C-5 4.35 -5 2.7 -5 1 C-3 0 -3 0 0 0 Z " fill="#6D8686" transform="translate(314,211)"/>
<path d="M0 0 C0.66 0.33 1.32 0.66 2 1 C1.67 2.65 1.34 4.3 1 6 C0.34 6 -0.32 6 -1 6 C-1.33 7.32 -1.66 8.64 -2 10 C-3 8 -3 8 -2.44140625 6.0546875 C-2.15136719 5.33539063 -1.86132812 4.61609375 -1.5625 3.875 C-1.27503906 3.15054688 -0.98757812 2.42609375 -0.69140625 1.6796875 C-0.46324219 1.12539062 -0.23507813 0.57109375 0 0 Z " fill="#718484" transform="translate(244,177)"/>
<path d="M0 0 C0.33 1.32 0.66 2.64 1 4 C1.33 4.99 1.66 5.98 2 7 C0.625 8.5 0.625 8.5 -1 10 C-1.66 10 -2.32 10 -3 10 C-2.01 6.7 -1.02 3.4 0 0 Z " fill="#667D7D" transform="translate(251,160)"/>
<path d="M0 0 C0.99 0 1.98 0 3 0 C3 0.66 3 1.32 3 2 C3.66 2 4.32 2 5 2 C5 2.66 5 3.32 5 4 C5.66 4 6.32 4 7 4 C6.67 4.66 6.34 5.32 6 6 C5.34 6 4.68 6 4 6 C4 5.01 4 4.02 4 3 C2.35 3 0.7 3 -1 3 C-0.67 2.01 -0.34 1.02 0 0 Z " fill="#5C7A79" transform="translate(329,160)"/>
<path d="M0 0 C0.99 0 1.98 0 3 0 C3 1.65 3 3.3 3 5 C2.01 5 1.02 5 0 5 C-0.5625 3.0625 -0.5625 3.0625 -1 1 C-0.67 0.67 -0.34 0.34 0 0 Z " fill="#2F5253" transform="translate(306,212)"/>
<path d="M0 0 C1.65 1.65 3.3 3.3 5 5 C4.34 5.66 3.68 6.32 3 7 C1.68 5.68 0.36 4.36 -1 3 C-0.67 2.01 -0.34 1.02 0 0 Z " fill="#586F6E" transform="translate(205,201)"/>
<path d="M0 0 C-0.3125 1.875 -0.3125 1.875 -1 4 C-1.99 4.66 -2.98 5.32 -4 6 C-4.33 4.35 -4.66 2.7 -5 1 C-2 0 -2 0 0 0 Z " fill="#5D7374" transform="translate(220,137)"/>
</svg>
